<?xml version="1.0" encoding="UTF-8"?>
<svg xmlns="http://www.w3.org/2000/svg" width="194.93980407714844" height="35.93962097167969" viewBox="0.03019844926893711 -26.36981201171875 194.93980407714844 35.93962097167969">
  
  <g transform="translate(0, -16.80000820159912)"><g transform="translate(0, -9.600000000000001)"><svg viewBox="0 0 1560 1560" width="36" height="36"><g fill="#FF671A">
<mask xmlns="http://www.w3.org/2000/svg" id="mask0_862_1452" style="mask-type:luminance" maskUnits="userSpaceOnUse" x="0" y="805" width="735" height="753">
<path d="M0 805.333H734.667V1557.33H0V805.333Z" fill="#FF671A"/>
</mask>
<g xmlns="http://www.w3.org/2000/svg" mask="url(#mask0_862_1452)">
<mask id="mask1_862_1452" style="mask-type:luminance" maskUnits="userSpaceOnUse" x="-288" y="-288" width="2136" height="2136">
<path d="M-287.08 762.013L798.133 -287.12L1847.27 798.094L762.053 1847.23L-287.08 762.013Z" fill="#FF671A"/>
</mask>
<g mask="url(#mask1_862_1452)">
<path d="M338.4 811.467L22.1334 806.133C9.8678 806.133 0.800068 816.269 1.33074 827.467C8.79954 947.997 42.9294 1060.53 98.9294 1160.27C104.263 1169.33 114.929 1173.6 124.528 1169.33L431.195 1038.14C450.929 1029.61 474.392 1031.2 492.528 1044C515.997 1061.07 523.46 1093.07 511.725 1118.14L369.325 1422.14C365.06 1431.21 368.258 1442.94 377.325 1448.27C474.924 1506.94 586.392 1545.34 706.392 1557.08C718.127 1558.14 728.256 1549.08 728.793 1536.81L734.127 1220.54C737.33 998.131 560.793 815.198 338.393 811.464L338.4 811.467Z" fill="#FF671A"/>
</g>
</g>
<mask xmlns="http://www.w3.org/2000/svg" id="mask2_862_1452" style="mask-type:luminance" maskUnits="userSpaceOnUse" x="2" y="0" width="753" height="735">
<path d="M2.66699 0H754.667V734.667H2.66699V0Z" fill="#FF671A"/>
</mask>
<g xmlns="http://www.w3.org/2000/svg" mask="url(#mask2_862_1452)">
<mask id="mask3_862_1452" style="mask-type:luminance" maskUnits="userSpaceOnUse" x="-288" y="-288" width="2136" height="2136">
<path d="M-287.08 762.013L798.133 -287.12L1847.27 798.093L762.053 1847.23L-287.08 762.013Z" fill="#FF671A"/>
</mask>
<g mask="url(#mask3_862_1452)">
<path d="M748.533 338.4L753.866 22.1334C753.866 9.8678 743.731 0.800068 732.533 1.33074C612.002 8.79954 499.466 42.9294 399.733 98.9294C390.665 104.263 386.4 114.929 390.665 124.528L521.863 431.195C530.394 450.929 528.795 474.392 515.998 492.528C498.93 515.997 467.467 523.46 441.862 511.725L138.409 368.792C129.341 364.526 117.606 367.724 112.273 376.792C53.6062 474.391 15.2048 585.859 3.47017 705.859C2.40246 717.593 11.4702 727.723 23.7355 728.26L340.002 733.593C561.869 737.323 744.816 560.793 748.536 338.393L748.533 338.4Z" fill="#FF671A"/>
</g>
</g>
<mask xmlns="http://www.w3.org/2000/svg" id="mask4_862_1452" style="mask-type:luminance" maskUnits="userSpaceOnUse" x="825" y="2" width="735" height="753">
<path d="M825.333 2.6665H1560V754.667H825.333V2.6665Z" fill="#FF671A"/>
</mask>
<g xmlns="http://www.w3.org/2000/svg" mask="url(#mask4_862_1452)">
<mask id="mask5_862_1452" style="mask-type:luminance" maskUnits="userSpaceOnUse" x="-288" y="-288" width="2136" height="2136">
<path d="M-287.08 762.013L798.133 -287.12L1847.27 798.093L762.053 1847.23L-287.08 762.013Z" fill="#FF671A"/>
</mask>
<g mask="url(#mask5_862_1452)">
<path d="M1221.6 748.533L1537.87 753.866C1550.13 753.866 1559.2 743.731 1558.67 732.533C1551.2 612.002 1517.07 499.466 1461.07 399.733C1455.74 390.665 1445.07 386.4 1435.47 390.665L1128.8 521.863C1109.07 530.394 1085.61 528.795 1067.47 515.998C1044 498.93 1036.54 467.468 1048.27 441.862L1190.67 138.929C1194.94 129.861 1191.74 118.126 1182.67 112.793C1085.61 53.5955 973.607 15.1942 853.607 3.99018C841.873 2.92248 831.744 11.9902 831.206 24.2555L825.873 340.522C822.675 561.856 999.206 744.802 1221.61 748.522L1221.6 748.533Z" fill="#FF671A"/>
</g>
</g>
<mask xmlns="http://www.w3.org/2000/svg" id="mask6_862_1452" style="mask-type:luminance" maskUnits="userSpaceOnUse" x="805" y="825" width="753" height="735">
<path d="M805.333 825.333H1557.33V1560H805.333V825.333Z" fill="#FF671A"/>
</mask>
<g xmlns="http://www.w3.org/2000/svg" mask="url(#mask6_862_1452)">
<mask id="mask7_862_1452" style="mask-type:luminance" maskUnits="userSpaceOnUse" x="-288" y="-288" width="2136" height="2136">
<path d="M-287.08 762.013L798.133 -287.12L1847.27 798.094L762.053 1847.23L-287.08 762.013Z" fill="#FF671A"/>
</mask>
<g mask="url(#mask7_862_1452)">
<path d="M1037.07 1127.2C1025.87 1101.06 1033.87 1070.13 1058.93 1053.6C1077.07 1040.8 1100.53 1040.27 1120.26 1049.87L1422.13 1191.2C1431.2 1195.47 1442.93 1192.27 1448.27 1183.2C1506.93 1085.6 1545.33 974.134 1556.53 854.134C1557.6 842.399 1548.53 832.27 1536.27 831.732L1220 826.399C997.6 822.665 814.666 999.199 810.933 1221.6L805.6 1537.87C805.6 1550.13 815.735 1559.2 826.933 1558.67C947.464 1551.2 1060 1517.07 1159.73 1461.07C1168.8 1455.74 1173.07 1445.07 1168.8 1435.47L1037.07 1127.2Z" fill="#FF671A"/>
</g>
</g>
</g></svg></g></g>
  <g transform="translate(46, 0)"><path d="M4.56 0L1.20 0L1.20-16.80L6.86-16.80Q9.70-16.80 11.32-15.47Q12.94-14.14 12.94-11.50L12.94-11.50Q12.94-8.83 11.32-7.46Q9.70-6.10 6.86-6.10L6.86-6.10L4.56-6.10L4.56 0ZM4.56-13.80L4.56-9.12L6.67-9.12Q8.04-9.12 8.78-9.70Q9.53-10.27 9.53-11.47L9.53-11.47Q9.53-12.67 8.78-13.24Q8.04-13.80 6.67-13.80L6.67-13.80L4.56-13.80Z M17.38 0L14.14 0L14.14-17.52L17.38-17.52L17.38 0Z M24.98 0.31L24.98 0.31Q23.28 0.31 21.88-0.56Q20.47-1.44 19.64-2.92Q18.82-4.39 18.82-6.19L18.82-6.19Q18.82-7.54 19.30-8.72Q19.78-9.91 20.62-10.81Q21.46-11.71 22.57-12.23Q23.69-12.74 24.98-12.74L24.98-12.74Q26.62-12.74 27.53-12.13Q28.44-11.52 28.94-10.51L28.94-10.51L28.94-12.48L32.16-12.48L32.16 0L29.02 0L29.02-2.04Q28.51-0.98 27.59-0.34Q26.66 0.31 24.98 0.31ZM25.51-2.62L25.51-2.62Q26.59-2.62 27.37-3.11Q28.15-3.60 28.58-4.42Q29.02-5.23 29.02-6.19L29.02-6.19Q29.02-7.18 28.58-7.99Q28.15-8.81 27.37-9.31Q26.59-9.82 25.51-9.82L25.51-9.82Q24.48-9.82 23.70-9.32Q22.92-8.83 22.49-8.02Q22.06-7.20 22.06-6.22L22.06-6.22Q22.06-5.28 22.49-4.45Q22.92-3.62 23.70-3.12Q24.48-2.62 25.51-2.62Z M35.35 5.02L35.35 5.02Q34.87 5.02 34.27 4.97Q33.67 4.92 33.19 4.78L33.19 4.78L33.67 1.68Q34.34 1.85 35.14 1.85L35.14 1.85Q36.07 1.85 36.67 1.31Q37.27 0.77 37.54-0.05L37.54-0.05L37.70-0.58L32.76-12.48L36.67-12.48L39.10-5.35Q39.43-4.39 39.62-3.36L39.62-3.36Q39.82-4.39 40.15-5.35L40.15-5.35L42.58-12.48L46.42-12.48L40.90 0.79Q40.10 2.69 38.83 3.85Q37.56 5.02 35.35 5.02Z  M57.46 0L51.19 0L51.19-16.80L56.86-16.80Q59.59-16.80 61.03-15.58Q62.47-14.35 62.47-12.38L62.47-12.38Q62.47-11.18 61.88-10.31Q61.30-9.43 59.76-8.86L59.76-8.86Q61.82-8.38 62.62-7.28Q63.41-6.19 63.41-4.63L63.41-4.63Q63.41-2.52 61.80-1.26Q60.19 0 57.46 0L57.46 0ZM54.55-13.80L54.55-9.86L56.54-9.86Q57.91-9.86 58.49-10.36Q59.06-10.85 59.06-11.86L59.06-11.86Q59.06-12.72 58.49-13.26Q57.91-13.80 56.54-13.80L56.54-13.80L54.55-13.80ZM54.55-7.13L54.55-3.02L57.14-3.02Q58.51-3.02 59.26-3.54Q60-4.06 60-5.16L60-5.16Q60-6.07 59.26-6.60Q58.51-7.13 57.14-7.13L57.14-7.13L54.55-7.13Z M70.90 0.31L70.90 0.31Q68.98 0.31 67.46-0.58Q65.95-1.46 65.10-2.94Q64.25-4.42 64.25-6.22L64.25-6.22Q64.25-8.02 65.10-9.50Q65.95-10.99 67.46-11.88Q68.98-12.77 70.90-12.77L70.90-12.77Q72.84-12.77 74.34-11.88Q75.84-10.99 76.69-9.50Q77.54-8.02 77.54-6.22L77.54-6.22Q77.54-4.42 76.69-2.94Q75.84-1.46 74.34-0.58Q72.84 0.31 70.90 0.31ZM70.90-2.64L70.90-2.64Q71.93-2.64 72.70-3.13Q73.46-3.62 73.88-4.44Q74.30-5.26 74.30-6.22L74.30-6.22Q74.30-7.20 73.88-8.02Q73.46-8.83 72.70-9.32Q71.93-9.82 70.90-9.82L70.90-9.82Q69.86-9.82 69.10-9.32Q68.33-8.83 67.91-8.02Q67.49-7.20 67.49-6.22L67.49-6.22Q67.49-5.26 67.91-4.44Q68.33-3.62 69.10-3.13Q69.86-2.64 70.90-2.64Z M85.15 0.31L85.15 0.31Q83.23 0.31 81.72-0.58Q80.21-1.46 79.36-2.94Q78.50-4.42 78.50-6.22L78.50-6.22Q78.50-8.02 79.36-9.50Q80.21-10.99 81.72-11.88Q83.23-12.77 85.15-12.77L85.15-12.77Q87.10-12.77 88.60-11.88Q90.10-10.99 90.95-9.50Q91.80-8.02 91.80-6.22L91.80-6.22Q91.80-4.42 90.95-2.94Q90.10-1.46 88.60-0.58Q87.10 0.31 85.15 0.31ZM85.15-2.64L85.15-2.64Q86.18-2.64 86.95-3.13Q87.72-3.62 88.14-4.44Q88.56-5.26 88.56-6.22L88.56-6.22Q88.56-7.20 88.14-8.02Q87.72-8.83 86.95-9.32Q86.18-9.82 85.15-9.82L85.15-9.82Q84.12-9.82 83.35-9.32Q82.58-8.83 82.16-8.02Q81.74-7.20 81.74-6.22L81.74-6.22Q81.74-5.26 82.16-4.44Q82.58-3.62 83.35-3.13Q84.12-2.64 85.15-2.64Z M96.48 0L93.24 0L93.24-17.52L96.48-17.52L96.48-7.44L101.16-12.48L105.77-12.48L99.89-6.67L105.79 0L101.50 0L96.48-5.93L96.48 0Z M108.24-13.51L108.24-13.51Q107.42-13.51 106.86-14.08Q106.30-14.64 106.30-15.43L106.30-15.43Q106.30-16.20 106.86-16.76Q107.42-17.33 108.24-17.33L108.24-17.33Q109.08-17.33 109.63-16.76Q110.18-16.20 110.18-15.43L110.18-15.43Q110.18-14.62 109.63-14.06Q109.08-13.51 108.24-13.51ZM109.87 0L106.63 0L106.63-12.48L109.87-12.48L109.87 0Z M115.03 0L111.79 0L111.79-12.48L114.98-12.48L114.98-10.66Q115.97-12.77 118.80-12.77L118.80-12.77Q120.14-12.77 121.22-12.14Q122.30-11.52 122.93-10.37Q123.55-9.22 123.55-7.63L123.55-7.63L123.55 0L120.31 0L120.31-6.84Q120.31-8.47 119.57-9.20Q118.82-9.94 117.62-9.94L117.62-9.94Q116.59-9.94 115.81-9.20Q115.03-8.47 115.03-6.84L115.03-6.84L115.03 0Z M131.42 5.11L131.42 5.11Q129.53 5.11 128.05 4.60Q126.58 4.08 125.45 2.76L125.45 2.76L127.46 0.38Q128.35 1.39 129.31 1.75Q130.27 2.11 131.45 2.11L131.45 2.11Q132.31 2.11 133.06 1.68Q133.80 1.25 134.24 0.47Q134.69-0.31 134.69-1.30L134.69-1.30L134.69-1.85Q134.18-0.98 133.31-0.46Q132.43 0.07 130.92 0.07L130.92 0.07Q129.22 0.07 127.84-0.79Q126.46-1.66 125.66-3.11Q124.87-4.56 124.87-6.36L124.87-6.36Q124.87-8.16 125.66-9.62Q126.46-11.09 127.84-11.94Q129.22-12.79 130.92-12.79L130.92-12.79Q132.48-12.79 133.36-12.24Q134.23-11.69 134.74-10.78L134.74-10.78L134.74-12.48L137.93-12.48L137.93-1.10Q137.93 0.82 137.10 2.21Q136.27 3.60 134.81 4.36Q133.34 5.11 131.42 5.11ZM131.45-2.88L131.45-2.88Q133.06-2.88 133.94-3.89Q134.83-4.90 134.83-6.36L134.83-6.36Q134.83-7.82 133.94-8.83Q133.06-9.84 131.45-9.84L131.45-9.84Q129.86-9.84 128.99-8.83Q128.11-7.82 128.11-6.36L128.11-6.36Q128.11-5.42 128.51-4.63Q128.90-3.84 129.65-3.36Q130.39-2.88 131.45-2.88Z M144.12 0.31L144.12 0.31Q140.98 0.31 138.94-1.87L138.94-1.87L141.12-3.86Q142.49-2.33 144.05-2.33L144.05-2.33Q144.89-2.33 145.33-2.70Q145.78-3.07 145.78-3.62L145.78-3.62Q145.78-3.96 145.62-4.20Q145.46-4.44 144.97-4.66Q144.48-4.87 143.50-5.09L143.50-5.09Q141.82-5.50 141-6.10Q140.18-6.70 139.92-7.44Q139.66-8.18 139.66-8.98L139.66-8.98Q139.66-10.61 140.89-11.70Q142.13-12.79 144.31-12.79L144.31-12.79Q145.82-12.79 146.90-12.34Q147.98-11.88 148.94-10.63L148.94-10.63L146.59-8.83Q146.14-9.55 145.57-9.86Q145.01-10.18 144.38-10.18L144.38-10.18Q143.71-10.18 143.27-9.91Q142.82-9.65 142.82-9.07L142.82-9.07Q142.82-8.76 143.11-8.46Q143.40-8.16 144.50-7.87L144.50-7.87Q146.33-7.42 147.29-6.80Q148.25-6.19 148.61-5.42Q148.97-4.66 148.97-3.72L148.97-3.72Q148.97-2.57 148.33-1.66Q147.70-0.74 146.60-0.22Q145.51 0.31 144.12 0.31Z" fill="#FF671A"/></g>
</svg>